<svg width="93" height="15" viewBox="0 0 93 15" fill="none" xmlns="http://www.w3.org/2000/svg">
<path d="M4.58807 15L0.355114 0.454545H4.24006L6.43466 9.9858H6.5554L9.0625 0.454545H12.2301L14.7372 10.0071H14.858L17.0597 0.454545H20.9375L16.7116 15H13.3239L10.7031 6.17898H10.5895L7.96875 15H4.58807ZM23.9542 15H20.1758L25.0835 0.454545H29.7638L34.6715 15H30.8931L27.4769 4.11932H27.3633L23.9542 15ZM23.4499 9.27557H31.3477V11.946H23.4499V9.27557ZM36.2376 15V0.454545H42.2461C43.3351 0.454545 44.275 0.651041 45.0657 1.04403C45.8612 1.43229 46.4743 1.991 46.9052 2.72017C47.3361 3.4446 47.5515 4.30398 47.5515 5.2983C47.5515 6.30682 47.3313 7.16383 46.891 7.86932C46.4506 8.57008 45.8256 9.10511 45.016 9.47443C44.2063 9.83902 43.2475 10.0213 42.1396 10.0213H38.3398V7.25142H41.4862C42.0165 7.25142 42.4592 7.18276 42.8143 7.04545C43.1741 6.90341 43.4464 6.69034 43.631 6.40625C43.8157 6.11742 43.908 5.74811 43.908 5.2983C43.908 4.84848 43.8157 4.4768 43.631 4.18324C43.4464 3.88494 43.1741 3.66241 42.8143 3.51562C42.4544 3.36411 42.0117 3.28835 41.4862 3.28835H39.7532V15H36.2376ZM44.4265 8.35227L48.0487 15H44.2134L40.6623 8.35227H44.4265ZM49.4798 15V0.454545H52.9954V6.60511H53.1871L57.9954 0.454545H62.136L56.9798 6.94602L62.2283 15H58.0238L54.4016 9.28267L52.9954 11.0582V15H49.4798ZM67.8196 15V0.454545H73.8281C74.9171 0.454545 75.857 0.651041 76.6477 1.04403C77.4432 1.43229 78.0563 1.991 78.4872 2.72017C78.9181 3.4446 79.1335 4.30398 79.1335 5.2983C79.1335 6.30682 78.9134 7.16383 78.473 7.86932C78.0327 8.57008 77.4077 9.10511 76.598 9.47443C75.7884 9.83902 74.8295 10.0213 73.7216 10.0213H69.9219V7.25142H73.0682C73.5985 7.25142 74.0412 7.18276 74.3963 7.04545C74.7562 6.90341 75.0284 6.69034 75.2131 6.40625C75.3977 6.11742 75.4901 5.74811 75.4901 5.2983C75.4901 4.84848 75.3977 4.4768 75.2131 4.18324C75.0284 3.88494 74.7562 3.66241 74.3963 3.51562C74.0365 3.36411 73.5938 3.28835 73.0682 3.28835H71.3352V15H67.8196ZM76.0085 8.35227L79.6307 15H75.7955L72.2443 8.35227H76.0085ZM81.0618 15V0.454545H87.0703C88.1593 0.454545 89.0992 0.667613 89.8899 1.09375C90.6854 1.51515 91.2985 2.10464 91.7294 2.86222C92.1603 3.61506 92.3757 4.491 92.3757 5.49006C92.3757 6.49384 92.1555 7.37216 91.7152 8.125C91.2796 8.87311 90.657 9.45312 89.8473 9.86506C89.0376 10.277 88.0765 10.483 86.9638 10.483H83.2564V7.71307H86.3104C86.8407 7.71307 87.2834 7.62074 87.6385 7.43608C87.9983 7.25142 88.2706 6.99337 88.4553 6.66193C88.6399 6.32576 88.7322 5.93513 88.7322 5.49006C88.7322 5.04025 88.6399 4.65199 88.4553 4.32528C88.2706 3.99384 87.9983 3.73816 87.6385 3.55824C87.2786 3.37831 86.8359 3.28835 86.3104 3.28835H84.5774V15H81.0618Z" fill="white"/>
</svg>
